<svg xmlns="http://www.w3.org/2000/svg" width="234" height="307" viewBox="0 0 234 307"><rect width="100%" height="100%" fill="#eee"/><path fill="#aaa" d="M55.93 161.145h5.75q.62 0 .99.34.36.35.36.93v2.29H47.65v-1.27q0-.39.17-.81.16-.43.52-.77l6.8-6.82q.85-.87 1.53-1.66.67-.79 1.12-1.57.45-.77.69-1.57t.24-1.68q0-.81-.23-1.42t-.66-1.03-1.02-.63q-.6-.21-1.34-.21-.69 0-1.27.2-.58.19-1.03.54t-.76.81q-.31.47-.46 1.03-.27.71-.68.94-.42.23-1.21.11l-2.02-.36q.23-1.61.9-2.83.67-1.21 1.67-2.03 1-.81 2.29-1.22 1.3-.41 2.78-.41 1.55 0 2.84.46 1.29.45 2.2 1.29.92.84 1.43 2.02.51 1.17.51 2.62 0 1.23-.37 2.29-.36 1.05-.97 2.01t-1.44 1.86q-.82.9-1.72 1.83l-5.05 5.16q.73-.21 1.45-.33.72-.11 1.37-.11m12.22-12.25-2.02-.36q.23-1.61.9-2.83.67-1.21 1.67-2.03 1-.81 2.29-1.22t2.78-.41q1.55 0 2.8.44t2.13 1.23q.88.78 1.36 1.83.47 1.06.47 2.28 0 1.07-.24 1.88-.24.82-.69 1.42-.45.61-1.12 1.03-.66.41-1.5.69 2.02.64 3.01 1.94t.99 3.27q0 1.67-.62 2.96t-1.67 2.16q-1.06.88-2.45 1.33-1.38.45-2.93.45-1.69 0-2.95-.39-1.25-.39-2.18-1.15t-1.58-1.86q-.66-1.1-1.12-2.54l1.69-.7q.67-.28 1.25-.14.58.13.84.62.28.55.61 1.07.34.53.8.94.47.41 1.1.67.62.25 1.49.25.98 0 1.71-.31.72-.32 1.21-.83t.73-1.14.24-1.27q0-.8-.17-1.46t-.71-1.12q-.54-.47-1.56-.73-1.02-.27-2.72-.27v-2.72q1.41-.02 2.34-.27t1.48-.69.77-1.06q.21-.62.21-1.36 0-1.58-.88-2.41-.88-.82-2.35-.82-.69 0-1.26.2-.57.19-1.03.54t-.77.81q-.31.47-.46 1.03-.27.71-.69.94-.43.23-1.2.11m18.5 7.36h6.82v-7.33q0-1.04.14-2.29zm10.16 0h2.82v2.22q0 .31-.21.53-.2.23-.57.23h-2.04v5.47h-3.34v-5.47h-9.45q-.39 0-.68-.24-.3-.24-.38-.6l-.4-1.94 10.62-14.18h3.63zm27.45 3.32-2.03 2-5.26-5.26-5.3 5.29-2.03-2 5.3-5.32-5.05-5.05 2.01-2.01 5.06 5.05 5.02-5.02 2.04 2.01-5.03 5.04zm12.89-10.68-2.01-.36q.23-1.61.9-2.83.66-1.21 1.66-2.03 1-.81 2.3-1.22 1.29-.41 2.78-.41 1.55 0 2.8.44 1.24.44 2.13 1.23.88.78 1.35 1.83.48 1.06.48 2.28 0 1.07-.24 1.88-.24.82-.69 1.42-.45.61-1.12 1.03-.67.41-1.5.69 2.01.64 3 1.94 1 1.3 1 3.27 0 1.67-.62 2.96t-1.68 2.16q-1.05.88-2.44 1.33t-2.94.45q-1.69 0-2.94-.39-1.26-.39-2.19-1.15t-1.58-1.86-1.11-2.54l1.69-.7q.66-.28 1.24-.14.58.13.85.62.28.55.61 1.07.33.53.8.94.46.41 1.09.67.63.25 1.5.25.97 0 1.7-.31.73-.32 1.22-.83t.73-1.14.24-1.27q0-.8-.17-1.46t-.72-1.12q-.54-.47-1.55-.73-1.02-.27-2.72-.27v-2.72q1.41-.02 2.34-.27t1.48-.69.76-1.06q.22-.62.22-1.36 0-1.58-.88-2.41-.89-.82-2.36-.82-.68 0-1.25.2-.58.19-1.03.54-.46.35-.77.81-.31.47-.47 1.03-.26.71-.69.94-.42.23-1.2.11m31.5 4.6q0 2.93-.63 5.1-.63 2.16-1.74 3.57-1.1 1.41-2.62 2.1-1.51.69-3.26.69t-3.25-.69q-1.49-.69-2.59-2.1t-1.72-3.57q-.62-2.17-.62-5.1 0-2.94.62-5.1.62-2.15 1.72-3.56t2.59-2.1q1.5-.69 3.25-.69t3.26.69q1.52.69 2.62 2.1 1.11 1.41 1.74 3.56.63 2.16.63 5.1m-3.95 0q0-2.43-.36-4.03-.36-1.59-.95-2.54-.6-.94-1.38-1.32-.77-.38-1.61-.38-.82 0-1.59.38-.76.38-1.35 1.32-.59.95-.94 2.54-.35 1.6-.35 4.03 0 2.44.35 4.03.35 1.6.94 2.55.59.94 1.35 1.32.77.38 1.59.38.84 0 1.61-.38.78-.38 1.38-1.32.59-.95.95-2.55.36-1.59.36-4.03m6.16-11.2h15.49v1.66q0 .74-.16 1.2-.15.45-.31.76l-8.49 17.49q-.26.54-.74.92t-1.29.38h-2.77l8.66-17.13q.29-.52.58-.97.29-.44.64-.84h-10.72q-.36 0-.62-.26-.27-.27-.27-.62z"/></svg>